Coordinates
version=1
nRows=14
nColumns=40
inDegrees=yes

Units are S.I. units (second, meters, Newtons, ...)
Angles are in degrees.

endheader
time	pelvis_tilt	pelvis_list	pelvis_rotation	pelvis_tx	pelvis_ty	pelvis_tz	hip_flexion_r	hip_adduction_r	hip_rotation_r	knee_angle_r	knee_angle_r_beta	ankle_angle_r	subtalar_angle_r	mtp_angle_r	hip_flexion_l	hip_adduction_l	hip_rotation_l	knee_angle_l	knee_angle_l_beta	ankle_angle_l	subtalar_angle_l	mtp_angle_l	lumbar_extension	lumbar_bending	lumbar_rotation	arm_flex_r	arm_add_r	arm_rot_r	elbow_flex_r	pro_sup_r	wrist_flex_r	wrist_dev_r	arm_flex_l	arm_add_l	arm_rot_l	elbow_flex_l	pro_sup_l	wrist_flex_l	wrist_dev_l
      3.01000000	     -4.12278593	     -2.64518786	     -0.96745634	      0.81666047	      0.93220151	      0.40488637	     26.89682662	     -5.98954875	     -5.04680917	     66.79458766	     66.79458766	      5.72861551	    -13.53858692	     -0.57267937	     15.66569885	     -2.42141318	     -9.17456730	     19.42666601	     19.42666601	      9.63761588	    -13.35662039	     -2.44350145	     -8.42646352	      3.15553287	      3.96600531	     11.40990990	    -11.92834537	     -0.56959169	     33.23786392	     43.00150282	      0.00000000	      0.00000000	     13.92082659	    -12.95237257	      5.11174680	     63.14547371	     43.56747740	      0.00000000	      0.00000000
      3.02185714	     -4.16484663	     -2.88595001	     -1.14389451	      0.81537135	      0.93258214	      0.40469669	     28.14708926	     -5.64702985	     -5.04277078	     65.89176452	     65.89176452	      5.77083632	    -13.87753130	     -0.59853523	     15.14711118	     -2.67511425	     -9.28316999	     19.24859597	     19.24859597	      9.94799411	    -13.22346971	     -2.64193366	     -8.52430115	      3.50350352	      4.31654423	      9.66601076	    -12.50926439	     -0.70754081	     31.82732368	     43.09955981	      0.00000000	      0.00000000	     15.87909080	    -12.81345731	      5.31202353	     66.15312654	     43.64674199	      0.00000000	      0.00000000
      3.03371429	     -4.14936461	     -3.05724741	     -1.26034580	      0.81409304	      0.93284362	      0.40443905	     29.26278454	     -5.41392490	     -5.06300099	     64.89198457	     64.89198457	      5.69397101	    -14.10312234	     -0.83963730	     14.60931672	     -2.86409084	     -9.46681278	     19.13183908	     19.13183908	     10.22689783	    -12.95157463	     -2.99692555	     -8.75341913	      3.77047656	      3.87402204	      8.64796147	    -12.59644639	     -1.45119131	     29.94516658	     43.34559056	      0.00000000	      0.00000000	     16.82164282	    -14.29071952	      7.02980297	     71.91747746	     43.74840459	      0.00000000	      0.00000000
      3.04557143	     -4.14180612	     -3.26392938	     -1.40440852	      0.81288815	      0.93317628	      0.40422970	     30.22581655	     -5.11317537	     -5.11631076	     63.59323131	     63.59323131	      5.65528627	    -14.25205897	     -0.75316248	     14.03995116	     -3.05831048	     -9.52685481	     18.93655428	     18.93655428	     10.52176019	    -12.86790501	     -3.10988232	     -8.93746366	      4.05835525	      3.71081681	      7.63486256	    -12.82010222	     -2.27305739	     27.83515881	     43.63690585	      0.00000000	      0.00000000	     18.34642607	    -14.91951472	      7.57404420	     76.07485082	     43.97123469	      0.00000000	      0.00000000
      3.05742857	     -4.12765442	     -3.43740009	     -1.55187022	      0.81171933	      0.93347693	      0.40400624	     31.06894878	     -4.84251559	     -5.18169350	     62.06191096	     62.06191096	      5.66464391	    -14.27659120	     -0.50516393	     13.44994040	     -3.21009991	     -9.60478890	     18.70901944	     18.70901944	     10.82582180	    -12.78018687	     -3.13950446	     -9.10253362	      4.33137051	      3.92122784	      6.15152956	    -13.29988983	     -2.48972470	     26.59751131	     43.73979778	      0.00000000	      0.00000000	     20.48595278	    -14.74630406	      7.50202106	     78.79228276	     44.08260860	      0.00000000	      0.00000000
      3.06928571	     -4.10690430	     -3.57309053	     -1.69309791	      0.81065639	      0.93373371	      0.40381965	     31.76422743	     -4.61176592	     -5.27672535	     60.23760591	     60.23760591	      5.68632935	    -14.15298761	     -0.23873152	     12.83640996	     -3.32618393	     -9.72538132	     18.45308786	     18.45308786	     11.12706261	    -12.61271075	     -3.17730327	     -9.27495523	      4.55894868	      3.97640305	      4.85301202	    -13.69796872	     -2.79421850	     25.41587778	     43.85538485	      0.00000000	      0.00000000	     22.48085289	    -14.90995208	      7.80623601	     81.96619918	     44.18089021	      0.00000000	      0.00000000
      3.08114286	     -4.10789070	     -3.66041625	     -1.83711595	      0.80962952	      0.93396381	      0.40367261	     32.32715324	     -4.43977299	     -5.43136502	     58.06500855	     58.06500855	      5.69645237	    -13.87656215	     -0.00334231	     12.23316090	     -3.39256116	     -9.87846865	     18.16905834	     18.16905834	     11.39382084	    -12.40831787	     -3.21238027	     -9.43479314	      4.72123369	      3.87071449	      3.74164227	    -14.03747310	     -3.15689107	     24.38912623	     43.97457329	      0.00000000	      0.00000000	     24.41757117	    -15.24043865	      8.17984345	     85.02035519	     44.27689868	      0.00000000	      0.00000000
      3.09300000	     -4.10937257	     -3.75811181	     -1.96045867	      0.80875168	      0.93417839	      0.40357290	     32.71424167	     -4.28590580	     -5.71972490	     55.53227053	     55.53227053	      5.63638731	    -13.41408757	      0.22215479	     11.60343371	     -3.45917153	     -9.98787704	     17.84361277	     17.84361277	     11.65002795	    -12.21765919	     -3.23942575	     -9.51079928	      4.91597853	      3.69387962	      2.70146601	    -14.37729561	     -3.42001863	     23.63181942	     44.05873580	      0.00000000	      0.00000000	     26.48746176	    -15.43361130	      8.29401822	     87.44874324	     44.36127898	      0.00000000	      0.00000000
      3.10485714	     -4.12475724	     -3.74288547	     -2.13639852	      0.80793586	      0.93425231	      0.40358230	     33.00061094	     -4.17750226	     -5.90342068	     52.71358939	     52.71358939	      5.58926405	    -12.82220001	      0.26289354	     10.93006409	     -3.40621902	    -10.21384831	     17.42220081	     17.42220081	     11.93981643	    -11.98298672	     -3.29897135	     -9.63442521	      4.97182077	      3.62808447	      1.70582832	    -14.69328920	     -3.81874904	     22.93577016	     44.16704667	      0.00000000	      0.00000000	     28.48444861	    -15.69643586	      8.65699014	     90.23775454	     44.45362494	      0.00000000	      0.00000000
      3.11671429	     -4.17821780	     -3.71323121	     -2.28886217	      0.80723385	      0.93423480	      0.40367116	     33.11053483	     -4.10719411	     -6.25466811	     49.47285398	     49.47285398	      5.22876005	    -12.15558827	     -0.30463119	     10.29298019	     -3.34519680	    -10.42475183	     16.99719627	     16.99719627	     12.15323854	    -11.72619834	     -3.44971426	     -9.67364881	      5.01442487	      3.29840025	      0.94390490	    -14.89244093	     -4.84971357	     22.48795744	     44.39334341	      0.00000000	      0.00000000	     30.38949176	    -16.35623197	      9.24992230	     93.01393683	     44.62885929	      0.00000000	      0.00000000
      3.12857143	     -4.18947066	     -3.69437995	     -2.47153439	      0.80673542	      0.93426348	      0.40390027	     32.98193518	     -3.98624679	     -6.69059274	     45.92186196	     45.92186196	      5.09023293	    -11.16945494	     -0.24676917	      9.55758473	     -3.28331008	    -10.61475503	     16.50985446	     16.50985446	     12.37894688	    -11.54102676	     -3.51403956	     -9.70677085	      5.07461211	      3.26908210	      0.09829411	    -15.20660446	     -5.18595294	     22.12246652	     44.47188694	      0.00000000	      0.00000000	     32.54877284	    -16.22920924	      9.10563663	     94.71466051	     44.73165718	      0.00000000	      0.00000000
      3.14042857	     -4.23877377	     -3.65416668	     -2.64456425	      0.80633496	      0.93415550	      0.40424675	     32.70610392	     -3.85538147	     -7.22506626	     42.08727609	     42.08727609	      4.87213360	    -10.01620431	     -0.07325302	      8.87052946	     -3.20525112	    -10.79366379	     16.04757158	     16.04757158	     12.59903483	    -11.35248798	     -3.61241577	     -9.66825423	      5.11826955	      3.14249648	     -0.62912233	    -15.49412861	     -5.46245374	     21.94789138	     44.52587584	      0.00000000	      0.00000000	     34.63591038	    -16.24682138	      9.05826734	     96.23917951	     44.81028108	      0.00000000	      0.00000000
      3.15228571	     -4.27697228	     -3.56693557	     -2.85528760	      0.80614889	      0.93392769	      0.40481990	     32.23576651	     -3.71591780	     -7.84415658	     38.04002576	     38.04002576	      4.64577235	     -8.61742117	      0.05589595	      8.12154968	     -3.08626418	    -11.04879378	     15.52610426	     15.52610426	     12.80955783	    -11.12347683	     -3.75023843	     -9.63134863	      5.08029910	      3.11554621	     -1.29769249	    -15.71952562	     -5.78563574	     21.95781260	     44.57759356	      0.00000000	      0.00000000	     36.71890725	    -16.30180467	      9.11487651	     97.77055975	     44.88662350	      0.00000000	      0.00000000
      3.16414286	     -4.33607041	     -3.44607893	     -3.05988859	      0.80606734	      0.93349880	      0.40554492	     31.64031955	     -3.54546401	     -8.50265272	     33.89049432	     33.89049432	      4.37543736	     -7.07283708	      0.32747754	      7.41685208	     -2.94053979	    -11.29694555	     15.05212894	     15.05212894	     13.02952889	    -10.92281352	     -3.93054217	     -9.59118848	      5.00726140	      3.04737328	     -1.85986595	    -15.89649539	     -6.10268168	     22.10640228	     44.61949826	      0.00000000	      0.00000000	     38.72098930	    -16.39236064	      9.16168716	     99.04214172	     44.95568836	      0.00000000	      0.00000000
